<?xml version="1.0" encoding="UTF-8"?>
<svg version="1.1" xmlns="http://www.w3.org/2000/svg" width="360" height="360">
<path d="M0 0 C118.8 0 237.6 0 360 0 C360 118.8 360 237.6 360 360 C241.2 360 122.4 360 0 360 C0 241.2 0 122.4 0 0 Z " fill="#FEFEFD" transform="translate(0,0)"/>
<path d="M0 0 C0.87785156 0.28875 1.75570312 0.5775 2.66015625 0.875 C17.58528698 6.17330314 32.56561976 17.97447856 39.625 32.296875 C46.39212866 47.45784595 47.06164608 61.74142798 47.5625 78.1875 C47.60582646 79.53451468 47.64944448 80.88152001 47.69335938 82.22851562 C47.79842652 85.48559727 47.90057834 88.74274197 48 92 C48.72445312 91.51789063 49.44890625 91.03578125 50.1953125 90.5390625 C51.16210938 89.90742188 52.12890625 89.27578125 53.125 88.625 C54.07632813 87.99851562 55.02765625 87.37203125 56.0078125 86.7265625 C64.65599369 81.73635873 74.34833932 81.67787456 83.890625 83.91015625 C87.69191951 85.12641406 91.31162724 86.47768589 95 88 C96.04027344 88.4228125 97.08054687 88.845625 98.15234375 89.28125 C114.7278102 96.77397071 128.24847395 111.19300962 135 128 C142.35918024 147.69325802 140.40650867 168.46767497 131.8515625 187.30078125 C123.31065964 205.06257335 107.40899363 217.29414174 89.296875 223.9296875 C68.90386273 230.55016779 48.84534977 227.62339042 30 218.1875 C24.33105335 214.86462512 19.65030553 210.60848624 15 206 C14.42765625 205.48566406 13.8553125 204.97132813 13.265625 204.44140625 C10.4139181 201.61373059 9.61628535 199.12866207 9.375 195.25 C9.63970362 189.44416721 12.07056258 184.91726995 15 180 C20.36087613 181.37458362 23.54198622 183.77595351 27.5625 187.375 C28.66748437 188.34169978 29.77294608 189.30785424 30.87890625 190.2734375 C31.40782471 190.7372583 31.93674316 191.2010791 32.48168945 191.67895508 C37.4204901 195.97608489 41.936873 198.6350885 48 201 C48.75152344 201.30292969 49.50304687 201.60585938 50.27734375 201.91796875 C61.59794076 205.93009381 74.80351587 205.0739344 86 201 C100.42873123 193.97526914 108.44871155 184.10814475 114.03515625 169.24609375 C118.19781418 155.94494958 116.50095067 142.33784832 110.125 130.0625 C107.82079946 126.11082438 105.50448794 122.99163605 102 120 C101.52304687 119.53335938 101.04609375 119.06671875 100.5546875 118.5859375 C90.48931354 109.10406348 78.27346206 105.73952355 64.80957031 105.60424805 C59.75680938 105.43996563 56.90490029 104.15812374 53 101 C51.42578125 99.296875 51.42578125 99.296875 50.3125 97.75 C49.549375 96.8425 48.78625 95.935 48 95 C47.01 95 46.02 95 45 95 C42.99463656 97.47588209 42.99463656 97.47588209 41 100.6875 C32.11586872 114.04781701 21.39251162 127.36478589 7 135 C6.16855469 135.44214844 5.33710938 135.88429687 4.48046875 136.33984375 C-9.85526972 143.41542282 -25.92544427 143.88147501 -41.14453125 139.38671875 C-54.65027341 134.76297603 -66.52855366 126.73904938 -78.2578125 118.79296875 C-92.56627791 109.12847896 -105.41487659 104.5174258 -122.9375 107.5 C-135.55748831 110.97049678 -146.89236697 119.27821284 -153.68359375 130.51953125 C-160.5959481 143.54429389 -162.42392909 156.23011939 -158.45507812 170.50512695 C-154.38221815 183.54539708 -149.45442572 191.71759056 -137.30322266 198.11303711 C-123.15900474 205.29613231 -110.62845545 208.50056635 -94.84375 204.03515625 C-82.1251413 199.40544292 -72.07009663 189.98806051 -66 178 C-64.61969975 174.41660214 -63.3765244 170.83127497 -62.23828125 167.1640625 C-60.92056235 163.79702051 -59.53939311 161.5681953 -57 159 C-51.62008447 158.90037193 -48.09597792 160.58668506 -44 164 C-41.53796532 170.82029483 -41.63857698 179.32846618 -44.5390625 185.9375 C-48.14395026 193.18360597 -52.61331403 199.95785446 -58 206 C-58.60328125 206.68449219 -59.2065625 207.36898437 -59.828125 208.07421875 C-67.95811981 216.74951809 -77.92113145 221.98335841 -89 226 C-90.25490234 226.48146484 -90.25490234 226.48146484 -91.53515625 226.97265625 C-108.7710276 232.70018691 -128.1129672 228.71469082 -144 221 C-162.37893957 211.13032273 -174.61510121 197.00151512 -180.96875 176.94140625 C-184.4742419 163.16287557 -184.91064566 147.42954836 -180 134 C-179.74476563 133.05511719 -179.48953125 132.11023438 -179.2265625 131.13671875 C-176.18104255 120.36563673 -170.04446192 111.72924006 -162 104 C-161.27941406 103.27039063 -160.55882812 102.54078125 -159.81640625 101.7890625 C-147.04133275 89.5232207 -130.0602018 83.24893737 -112.40258789 83.60620117 C-91.12827326 84.52384114 -75.7084731 93.18528315 -58.66870117 105.44482422 C-53.3564659 109.24053902 -47.94355391 112.29646446 -42 115 C-41.3205835 115.31839844 -40.64116699 115.63679688 -39.94116211 115.96484375 C-34.62595632 118.23237966 -29.72766743 118.42097855 -24 118.3125 C-23.14921875 118.31572266 -22.2984375 118.31894531 -21.421875 118.32226562 C-10.36775104 118.22901765 -0.7132978 114.93421174 7.75 107.625 C8.4925 106.75875 9.235 105.8925 10 105 C10.55171875 104.41476563 11.1034375 103.82953125 11.671875 103.2265625 C16.0005597 98.5464034 19.32470811 93.79156595 22 88 C22.32097656 87.31035156 22.64195312 86.62070313 22.97265625 85.91015625 C27.08672703 75.02222009 26.78664807 61.02256783 22.4375 50.3125 C19.60087584 44.64591043 16.32537712 39.6329595 12 35 C11.50242188 34.46117187 11.00484375 33.92234375 10.4921875 33.3671875 C0.02151761 23.31744906 -14.26078538 19.43305528 -28.37890625 19.69140625 C-40.83260417 20.75272463 -51.81240723 26.253757 -60.375 35.3125 C-64.14273702 39.84603722 -66.58709164 44.65436057 -69 50 C-70.00875335 52.13076099 -71.02988784 54.25569874 -72.0625 56.375 C-72.52785156 57.35210937 -72.99320312 58.32921875 -73.47265625 59.3359375 C-75.05476019 62.09551521 -76.53396148 63.99397251 -79 66 C-83.46342038 66.0811531 -85.41915868 65.47982544 -88.875 62.625 C-93.26332901 57.20412298 -92.552256 50.66596323 -92 44 C-91.09963746 40.70210066 -89.70437436 37.95212505 -88 35 C-87.57589844 34.20078125 -87.15179688 33.4015625 -86.71484375 32.578125 C-79.34084528 19.3501166 -68.43494911 9.74096223 -55 3 C-54.30390625 2.64035156 -53.6078125 2.28070313 -52.890625 1.91015625 C-36.17785154 -6.17175063 -17.21947451 -6.31746326 0 0 Z " fill="#F7991E" transform="translate(202,68)"/>
<path d="M0 0 C6.80822814 10.21234221 5.20579118 26.47458587 5.5625 38.1875 C5.60582646 39.53451468 5.64944448 40.88152001 5.69335938 42.22851562 C5.79842652 45.48559727 5.90057834 48.74274197 6 52 C6.61875 51.505 7.2375 51.01 7.875 50.5 C10 49 10 49 12 49 C12 49.66 12 50.32 12 51 C11.01 51.495 11.01 51.495 10 52 C10 54.31 10 56.62 10 59 C3.77021278 54.22824808 3.77021278 54.22824808 3 50 C2.87386005 47.66472556 2.79854603 45.32653386 2.75390625 42.98828125 C2.722258 41.58324439 2.6902627 40.17821531 2.65795898 38.77319336 C2.64256073 38.04325165 2.62716248 37.31330994 2.61129761 36.56124878 C2.34494499 24.28687417 1.91066691 12.15035751 0 0 Z " fill="#EDA748" transform="translate(244,108)"/>
<path d="M0 0 C0 0.99 0 1.98 0 3 C2.64 3 5.28 3 8 3 C8 3.66 8 4.32 8 5 C12.455 4.505 12.455 4.505 17 4 C17 4.66 17 5.32 17 6 C17.99 6.66 18.98 7.32 20 8 C20.6875 10.125 20.6875 10.125 21 12 C18.34739458 10.95355933 15.71554252 9.87710518 13.09765625 8.74609375 C12.09605469 8.31425781 11.09445313 7.88242188 10.0625 7.4375 C9.06347656 7.00308594 8.06445312 6.56867188 7.03515625 6.12109375 C-3.36296517 2.2803462 -15.43371845 3.27321767 -26 6 C-25.67 5.01 -25.34 4.02 -25 3 C-22.36 3 -19.72 3 -17 3 C-17 2.34 -17 1.68 -17 1 C-14.54171921 0.83252588 -12.08338135 0.6659856 -9.625 0.5 C-8.92632812 0.45230469 -8.22765625 0.40460938 -7.5078125 0.35546875 C-2.2265625 0 -2.2265625 0 0 0 Z " fill="#EFA03A" transform="translate(186,84)"/>
<path d="M0 0 C0.66 0 1.32 0 2 0 C2 0.66 2 1.32 2 2 C2.66 2 3.32 2 4 2 C4 4.31 4 6.62 4 9 C4.66 9 5.32 9 6 9 C9.32663874 19.18783114 9.54563064 30.23531195 5 40 C4.41867065 41.66019282 3.85630856 43.32714129 3.3125 45 C3.06113281 45.763125 2.80976563 46.52625 2.55078125 47.3125 C2.36902344 47.869375 2.18726563 48.42625 2 49 C1.34 49 0.68 49 0 49 C0.45527774 47.12425571 0.9143718 45.24943754 1.375 43.375 C1.63023437 42.33085937 1.88546875 41.28671875 2.1484375 40.2109375 C3 37 3 37 4.08203125 33.984375 C7.53240199 22.76699949 3.84533404 10.64861735 0 0 Z " fill="#EDA442" transform="translate(313,198)"/>
<path d="M0 0 C1.98 0 3.96 0 6 0 C3.09361794 1.93758804 1.07965696 2.67428145 -2.25 3.5625 C-3.16265625 3.81128906 -4.0753125 4.06007813 -5.015625 4.31640625 C-11.76641113 5.86272506 -18.29597337 6.18243642 -25.1875 6.1875 C-26.07630859 6.19974609 -26.96511719 6.21199219 -27.88085938 6.22460938 C-29.16766602 6.22750977 -29.16766602 6.22750977 -30.48046875 6.23046875 C-31.25285889 6.23457764 -32.02524902 6.23868652 -32.82104492 6.24291992 C-35 6 -35 6 -39 4 C-29.76 4 -20.52 4 -11 4 C-10.67 3.01 -10.34 2.02 -10 1 C-6.7 1.33 -3.4 1.66 0 2 C0 1.34 0 0.68 0 0 Z " fill="#ECA74D" transform="translate(291,289)"/>
<path d="M0 0 C0 0.33 0 0.66 0 1 C-0.8765625 0.9278125 -1.753125 0.855625 -2.65625 0.78125 C-15.1068535 -0.12976977 -27.52118079 -0.10159359 -40 0 C-31.87640256 -8.12359744 -10.00324945 -2.26183837 0 0 Z " fill="#EFA645" transform="translate(112,155)"/>
<path d="M0 0 C0 0.66 0 1.32 0 2 C-8.44498262 5.11130939 -16.42314961 6.19094141 -25.375 6.25 C-26.55304199 6.26377686 -26.55304199 6.26377686 -27.75488281 6.27783203 C-31.7547344 6.25630894 -34.52557474 5.95079244 -38 4 C-36.741875 3.96261719 -35.48375 3.92523438 -34.1875 3.88671875 C-24.23430148 3.52643522 -14.74326777 2.67137119 -4.9921875 0.62109375 C-2 0 -2 0 0 0 Z " fill="#FEF0D1" transform="translate(294,291)"/>
<path d="M0 0 C4.91617287 7.37425931 4.21121076 18.54318891 2.60302734 27.11621094 C1.69712845 30.53177869 0.46287932 33.78689007 -1 37 C-2.04417955 33.7834154 -1.89685461 31.76304368 -1.0703125 28.5078125 C0.22189144 22.59407919 0.22473702 16.90525371 0.125 10.875 C0.11146484 9.2971875 0.11146484 9.2971875 0.09765625 7.6875 C0.07435853 5.12475122 0.04165112 2.56250488 0 0 Z " fill="#FDEBC9" transform="translate(225,121)"/>
<path d="M0 0 C0.33 0 0.66 0 1 0 C1.09765625 6.15234375 1.09765625 6.15234375 1 8 C0.67 8.33 0.34 8.66 0 9 C-0.15858842 11.14386657 -0.25129298 13.29266838 -0.31640625 15.44140625 C-0.35830078 16.74658203 -0.40019531 18.05175781 -0.44335938 19.39648438 C-0.48317608 20.7851533 -0.52288825 22.17382522 -0.5625 23.5625 C-0.60567989 24.95509183 -0.649294 26.34767028 -0.69335938 27.74023438 C-0.79985876 31.16004801 -0.90186923 34.57993763 -1 38 C-1.33 38 -1.66 38 -2 38 C-4.46426306 25.97678101 -4.51719911 11.4812144 0 0 Z " fill="#E99F3E" transform="translate(22,202)"/>
<path d="M0 0 C0 0.66 0 1.32 0 2 C-0.825 2.598125 -1.65 3.19625 -2.5 3.8125 C-5.28463809 5.75364411 -5.28463809 5.75364411 -5.3125 8.75 C-5.209375 9.4925 -5.10625 10.235 -5 11 C-5.66 11 -6.32 11 -7 11 C-7.33 11.99 -7.66 12.98 -8 14 C-8.78375 14.0825 -9.5675 14.165 -10.375 14.25 C-13.14749104 14.72806339 -13.14749104 14.72806339 -14.3125 17.0625 C-14.539375 17.701875 -14.76625 18.34125 -15 19 C-15.66 19 -16.32 19 -17 19 C-15.0533248 12.77063937 -7.44132364 0 0 0 Z " fill="#EFA33B" transform="translate(47,167)"/>
<path d="M0 0 C0.33 0 0.66 0 1 0 C1.29242574 16.15314798 0.81842059 29.08795802 -6 44 C-7.38718056 39.68124451 -6.03889802 37.99937688 -4 34 C-3.2863276 30.26228166 -3.2863276 30.26228166 -3 27 C-2.34 27 -1.68 27 -1 27 C-1.01160156 26.22398437 -1.02320313 25.44796875 -1.03515625 24.6484375 C-1.10418029 16.38527392 -0.69121931 8.23291573 0 0 Z " fill="#E9A348" transform="translate(340,211)"/>
<path d="M0 0 C2.31 0 4.62 0 7 0 C7 0.66 7 1.32 7 2 C13.00087244 2.82650905 18.95082054 3.2790899 25 3.5625 C25.87011719 3.60568359 26.74023438 3.64886719 27.63671875 3.69335938 C29.75768219 3.79824218 31.87882433 3.89950075 34 4 C34 4.33 34 4.66 34 5 C22.73315067 7.06530919 12.6569853 6.41757031 2 2 C1.34 1.34 0.68 0.68 0 0 Z " fill="#FDE8C0" transform="translate(70,269)"/>
<path d="M0 0 C1.65 0 3.3 0 5 0 C5 0.66 5 1.32 5 2 C5.89460938 1.97679687 6.78921875 1.95359375 7.7109375 1.9296875 C15.08912758 1.81956526 21.84445343 2.15340734 29 4 C29 4.66 29 5.32 29 6 C25.10249856 5.75044163 21.20762122 5.47163578 17.3125 5.1875 C16.20970703 5.11724609 15.10691406 5.04699219 13.97070312 4.97460938 C12.90400391 4.89404297 11.83730469 4.81347656 10.73828125 4.73046875 C9.75899658 4.66239014 8.77971191 4.59431152 7.77075195 4.52416992 C4.63088389 3.93017074 2.59551366 2.83855049 0 1 C0 0.67 0 0.34 0 0 Z " fill="#EBA241" transform="translate(256,169)"/>
<path d="M0 0 C11.31992777 -0.45212729 22.02125618 0.17906611 32 6 C28.36804504 7.21065165 26.93468371 6.62784815 23.3125 5.5625 C22.31863281 5.27503906 21.32476562 4.98757812 20.30078125 4.69140625 C19.16189453 4.34916016 19.16189453 4.34916016 18 4 C18 3.34 18 2.68 18 2 C16.700625 2.020625 15.40125 2.04125 14.0625 2.0625 C9.30617675 2.07004972 4.71611047 1.59887117 0 1 C0 0.67 0 0.34 0 0 Z " fill="#FEEEC6" transform="translate(170,87)"/>
<path d="M0 0 C0.33 0.66 0.66 1.32 1 2 C0.319375 2.8353125 0.319375 2.8353125 -0.375 3.6875 C-2.03733768 6.05313439 -3.02144543 8.29015658 -4 11 C-4.66 11 -5.32 11 -6 11 C-6.268125 11.61875 -6.53625 12.2375 -6.8125 12.875 C-8 15 -8 15 -11 17 C-13.6875 17.125 -13.6875 17.125 -16 17 C-15.27167969 16.44441406 -14.54335938 15.88882812 -13.79296875 15.31640625 C-11.02494096 13.0206853 -8.69875353 10.62355448 -6.3125 7.9375 C-5.54550781 7.08027344 -4.77851563 6.22304687 -3.98828125 5.33984375 C-1.89474856 2.96788024 -1.89474856 2.96788024 0 0 Z " fill="#EDA442" transform="translate(311,249)"/>
<path d="M0 0 C0 0.66 0 1.32 0 2 C-4.455 2.495 -4.455 2.495 -9 3 C-9 3.66 -9 4.32 -9 5 C-12.36644357 6.0635083 -15.18522983 6.00078718 -18.6875 5.6875 C-19.66074219 5.60886719 -20.63398438 5.53023438 -21.63671875 5.44921875 C-22.80654297 5.22685547 -22.80654297 5.22685547 -24 5 C-24.33 4.34 -24.66 3.68 -25 3 C-23.64068359 2.92652344 -23.64068359 2.92652344 -22.25390625 2.8515625 C-14.91503484 2.40113441 -7.19029837 0 0 0 Z " fill="#ECA03C" transform="translate(286,270)"/>
<path d="M0 0 C3.625 0.375 3.625 0.375 7 1 C7 1.33 7 1.66 7 2 C4.69 2 2.38 2 0 2 C0 2.66 0 3.32 0 4 C-0.66 4 -1.32 4 -2 4 C-2.103125 4.639375 -2.20625 5.27875 -2.3125 5.9375 C-3.23335174 10.03947595 -4.3305971 14.13401435 -6 18 C-6.66 18.33 -7.32 18.66 -8 19 C-7.54613041 12.0406663 -5.00279178 5.00279178 0 0 Z " fill="#ECA94C" transform="translate(145,227)"/>
<path d="M0 0 C9.24 0 18.48 0 28 0 C28 0.66 28 1.32 28 2 C28.99 2.33 29.98 2.66 31 3 C29.845 2.835 28.69 2.67 27.5 2.5 C17.8113046 1.42518435 7.6227382 1.3962103 -2 3 C-1.34 2.67 -0.68 2.34 0 2 C0 1.34 0 0.68 0 0 Z " fill="#EAA240" transform="translate(76,173)"/>
<path d="M0 0 C0.98806641 0.47953125 0.98806641 0.47953125 1.99609375 0.96875 C6.33996925 2.46001545 10.66288694 2.42562731 15.20507812 2.56640625 C19.01812758 2.73110134 21.67589139 3.16005699 25 5 C21.77090994 5.05834353 18.54195662 5.09371115 15.3125 5.125 C14.40048828 5.14175781 13.48847656 5.15851563 12.54882812 5.17578125 C7.93151773 5.20936169 4.18067669 5.23556185 0 3 C0 2.01 0 1.02 0 0 Z " fill="#FEEECC" transform="translate(256,170)"/>
<path d="M0 0 C3.08474499 1.12115514 6.16753395 2.24759587 9.25 3.375 C10.12269531 3.69210937 10.99539062 4.00921875 11.89453125 4.3359375 C12.73886719 4.6453125 13.58320313 4.9546875 14.453125 5.2734375 C15.22817383 5.55622559 16.00322266 5.83901367 16.80175781 6.13037109 C18.93899825 6.97586759 20.96172668 7.94026029 23 9 C16.50109414 9.44310722 10.09029048 8.33429115 4 6 C3.67 5.01 3.34 4.02 3 3 C2.01 2.67 1.02 2.34 0 2 C0 1.34 0 0.68 0 0 Z " fill="#FEF3D7" transform="translate(233,286)"/>
<path d="M0 0 C1 2 1 2 0.5625 4.8125 C-1.34682325 8.70751943 -3.30639739 9.80030213 -7.02734375 11.82421875 C-9.0210796 13.01256427 -10.43528077 14.29793865 -12 16 C-12.99 15.67 -13.98 15.34 -15 15 C-14.33613281 14.41992188 -13.67226562 13.83984375 -12.98828125 13.2421875 C-8.26794615 9.06624141 -3.84575655 4.99948351 0 0 Z " fill="#FDECC9" transform="translate(148,268)"/>
<path d="M0 0 C2.375 0.1875 2.375 0.1875 5 1 C7.24878527 5.07212468 7.21059813 8.73300019 7.125 13.3125 C7.10695312 14.56675781 7.08890625 15.82101563 7.0703125 17.11328125 C7.04710937 18.06589844 7.02390625 19.01851562 7 20 C6.34 20.33 5.68 20.66 5 21 C4.95101562 20.04738281 4.90203125 19.09476563 4.8515625 18.11328125 C4.77679688 16.85902344 4.70203125 15.60476562 4.625 14.3125 C4.52058594 12.45044922 4.52058594 12.45044922 4.4140625 10.55078125 C3.89881186 6.13226396 3.16793706 3.16793706 0 0 Z " fill="#FEF4D5" transform="translate(154,229)"/>
<path d="M0 0 C0 0.33 0 0.66 0 1 C-1.12277344 1.31453125 -2.24554688 1.6290625 -3.40234375 1.953125 C-11.20248264 4.17191241 -18.69552213 6.41416541 -26 10 C-26 9.01 -26 8.02 -26 7 C-7.82553957 -0.61780576 -7.82553957 -0.61780576 0 0 Z " fill="#FEF0CE" transform="translate(79,152)"/>
<path d="M0 0 C0.33 0 0.66 0 1 0 C1 2.31 1 4.62 1 7 C0.34 7 -0.32 7 -1 7 C-1 8.65 -1 10.3 -1 12 C-2.98 12.99 -2.98 12.99 -5 14 C-5 14.99 -5 15.98 -5 17 C-5.66 17 -6.32 17 -7 17 C-7 17.66 -7 18.32 -7 19 C-7.66 18.67 -8.32 18.34 -9 18 C-8.51789063 17.20335937 -8.03578125 16.40671875 -7.5390625 15.5859375 C-6.90742188 14.52632812 -6.27578125 13.46671875 -5.625 12.375 C-4.99851563 11.33085937 -4.37203125 10.28671875 -3.7265625 9.2109375 C-2.09548847 6.17758264 -0.97923167 3.29377924 0 0 Z " fill="#EDA647" transform="translate(226,150)"/>
<path d="M0 0 C1.5348617 4.59338174 0.59474554 8.99059085 0.05859375 13.7109375 C-0.00455815 17.25586424 0.82169054 19.68928435 2 23 C1.67 23.66 1.34 24.32 1 25 C-2.98217721 19.19265824 -2.63880747 12.83606953 -2 6 C-1.39549252 3.98034281 -0.74543808 1.97199557 0 0 Z " fill="#EFAC52" transform="translate(112,106)"/>
<path d="M0 0 C0.33 1.32 0.66 2.64 1 4 C0.01 4.33 -0.98 4.66 -2 5 C-2.60061233 6.90178785 -2.60061233 6.90178785 -3 9 C-5.33343353 12.50015029 -7.16917814 13.40382422 -11 15 C-11.66 14.67 -12.32 14.34 -13 14 C-12.09507813 13.23816406 -12.09507813 13.23816406 -11.171875 12.4609375 C-6.69550368 8.6054822 -2.95211487 5.13411282 0 0 Z " fill="#EEAC52" transform="translate(133,251)"/>
<path d="M0 0 C1.0725 0.350625 2.145 0.70125 3.25 1.0625 C7.25435111 2.06715761 7.25435111 2.06715761 11 1 C11.12375 1.639375 11.2475 2.27875 11.375 2.9375 C11.58125 3.618125 11.7875 4.29875 12 5 C12.66 5.33 13.32 5.66 14 6 C14 6.66 14 7.32 14 8 C8.76481294 6.56032356 4.36973991 4.18303389 0 1 C0 0.67 0 0.34 0 0 Z " fill="#EDA23C" transform="translate(226,281)"/>
<path d="M0 0 C1 2 1 2 0.0390625 5.30078125 C-0.42487848 6.6406108 -0.89658411 7.97777056 -1.375 9.3125 C-2.85467338 13.50355289 -4.26819366 17.60065256 -5 22 C-5.33 22 -5.66 22 -6 22 C-6.21755666 16.5610835 -6.10428384 12.12919186 -4 7 C-3.34 7 -2.68 7 -2 7 C-1.855625 6.030625 -1.71125 5.06125 -1.5625 4.0625 C-1 1 -1 1 0 0 Z " fill="#FEF1D1" transform="translate(25,191)"/>
<path d="M0 0 C0.33 1.32 0.66 2.64 1 4 C0.01 4.33 -0.98 4.66 -2 5 C-2.268125 5.804375 -2.53625 6.60875 -2.8125 7.4375 C-4 10 -4 10 -7 11.375 C-10 12 -10 12 -12 11 C-10.948125 10.29875 -9.89625 9.5975 -8.8125 8.875 C-5.19709762 6.31041579 -2.69118929 3.50670119 0 0 Z " fill="#F0AC53" transform="translate(216,169)"/>
<path d="M0 0 C4.50416844 3.67006318 6.76790201 8.74908096 9 14 C9 14.66 9 15.32 9 16 C8.01 16 7.02 16 6 16 C4.50178941 12.62902617 4 10.79557881 4 7 C3.34 7 2.68 7 2 7 C1.34 4.69 0.68 2.38 0 0 Z " fill="#EDA74A" transform="translate(327,180)"/>
<path d="M0 0 C0.33 0.66 0.66 1.32 1 2 C0.01 3.485 0.01 3.485 -1 5 C-0.34 5.33 0.32 5.66 1 6 C1 6.66 1 7.32 1 8 C-1.90567134 10.01782732 -4.51669784 11.35494404 -8 12 C-5.6163187 7.65829477 -3.21880117 3.7935871 0 0 Z " fill="#FDEFD4" transform="translate(243,168)"/>
<path d="M0 0 C2.97 0 5.94 0 9 0 C9 0.66 9 1.32 9 2 C10.98 1.67 12.96 1.34 15 1 C15.66 2.65 16.32 4.3 17 6 C16.35933594 5.80664062 15.71867187 5.61328125 15.05859375 5.4140625 C10.04889015 3.9059252 5.03460143 2.42282214 0 1 C0 0.67 0 0.34 0 0 Z " fill="#FDE9C4" transform="translate(282,151)"/>
<path d="M0 0 C0.5 2.1875 0.5 2.1875 0 5 C-2.43100182 7.10353811 -5.03640346 8.75029061 -8 10 C-8.66 9.67 -9.32 9.34 -10 9 C-8.52386015 7.49702124 -7.04400843 5.99768715 -5.5625 4.5 C-4.73878906 3.6646875 -3.91507812 2.829375 -3.06640625 1.96875 C-1 0 -1 0 0 0 Z " fill="#FEF0D1" transform="translate(324,270)"/>
<path d="M0 0 C5.80342274 1.48805711 10.17590879 4.59097555 15 8 C12.50907189 9.24546405 11.58919267 8.7767578 9 8 C9 7.34 9 6.68 9 6 C8.01 6 7.02 6 6 6 C6 5.34 6 4.68 6 4 C5.071875 3.7834375 5.071875 3.7834375 4.125 3.5625 C2 3 2 3 0 2 C0 1.34 0 0.68 0 0 Z " fill="#EDA03D" transform="translate(122,161)"/>
<path d="M0 0 C6.875 2.75 6.875 2.75 8 5 C8.66 4.67 9.32 4.34 10 4 C10.33 4.99 10.66 5.98 11 7 C10.01 8.485 10.01 8.485 9 10 C7.88625 8.8553125 7.88625 8.8553125 6.75 7.6875 C4.176446 5.04428801 4.176446 5.04428801 1.6875 3.3125 C1.130625 2.879375 0.57375 2.44625 0 2 C0 1.34 0 0.68 0 0 Z " fill="#F1A845" transform="translate(34,269)"/>
<path d="M0 0 C-2.03460769 1.01428514 -4.07804606 2.01086789 -6.125 3 C-7.83042969 3.8353125 -7.83042969 3.8353125 -9.5703125 4.6875 C-13.01319533 6.00504969 -15.35669762 6.26577282 -19 6 C-17.68 5.67 -16.36 5.34 -15 5 C-15 4.34 -15 3.68 -15 3 C-13.4221875 2.566875 -13.4221875 2.566875 -11.8125 2.125 C-8.12939099 1.12134655 -8.12939099 1.12134655 -5.25 -0.1875 C-3 -1 -3 -1 0 0 Z " fill="#ECA548" transform="translate(211,202)"/>
<path d="M0 0 C0.66 0.99 1.32 1.98 2 3 C1.19152271 4.16945792 0.37810888 5.33550461 -0.4375 6.5 C-0.88996094 7.1496875 -1.34242188 7.799375 -1.80859375 8.46875 C-2.20175781 8.9740625 -2.59492188 9.479375 -3 10 C-3.33 10 -3.66 10 -4 10 C-4.25 6.6875 -4.25 6.6875 -4 3 C-2 1.0625 -2 1.0625 0 0 Z " fill="#EF9D2C" transform="translate(241,166)"/>
<path d="M0 0 C1.1446875 0.2475 1.1446875 0.2475 2.3125 0.5 C5.03596236 1.09145396 5.03596236 1.09145396 8 1 C7.67 2.98 7.34 4.96 7 7 C7.66 7 8.32 7 9 7 C8.67 8.32 8.34 9.64 8 11 C7.67386719 10.45730469 7.34773438 9.91460937 7.01171875 9.35546875 C6.57472656 8.64003906 6.13773437 7.92460937 5.6875 7.1875 C5.25824219 6.47980469 4.82898438 5.77210938 4.38671875 5.04296875 C3.07493533 3.11039769 1.70596155 1.58589388 0 0 Z " fill="#F0A039" transform="translate(304,187)"/>
<path d="M0 0 C2.475 0.495 2.475 0.495 5 1 C5.33 1.99 5.66 2.98 6 4 C6.474375 4.474375 6.94875 4.94875 7.4375 5.4375 C9.19737979 7.19737979 10.12692081 8.67178884 11 11 C10.67 11.99 10.34 12.98 10 14 C9.61328125 13.40832031 9.2265625 12.81664062 8.828125 12.20703125 C6.04615051 7.98586699 3.25370649 3.87941928 0 0 Z " fill="#FEF0D3" transform="translate(322,174)"/>
<path d="M0 0 C0.33 0 0.66 0 1 0 C1.03738281 1.27617187 1.07476562 2.55234375 1.11328125 3.8671875 C1.17892791 5.53648838 1.2453757 7.20575789 1.3125 8.875 C1.33505859 9.71675781 1.35761719 10.55851563 1.38085938 11.42578125 C1.41630859 12.23144531 1.45175781 13.03710938 1.48828125 13.8671875 C1.51446533 14.61081543 1.54064941 15.35444336 1.56762695 16.12060547 C1.86729591 18.40733826 1.86729591 18.40733826 5 20 C3.02 20.99 3.02 20.99 1 22 C0.05862745 19.17588235 -0.11725382 17.47081968 -0.09765625 14.55078125 C-0.09443359 13.70322266 -0.09121094 12.85566406 -0.08789062 11.98242188 C-0.07951172 11.10134766 -0.07113281 10.22027344 -0.0625 9.3125 C-0.05798828 8.41982422 -0.05347656 7.52714844 -0.04882812 6.60742188 C-0.03704983 4.40488013 -0.02060164 2.20247401 0 0 Z " fill="#FEEAB5" transform="translate(249,138)"/>
<path d="M0 0 C0.66 0.33 1.32 0.66 2 1 C-1.43361902 4.63559661 -4.7973607 7.36113346 -9 10 C-9.66 9.67 -10.32 9.34 -11 9 C-7.37 6.03 -3.74 3.06 0 0 Z " fill="#EEA646" transform="translate(138,76)"/>
<path d="M0 0 C2.475 0.495 2.475 0.495 5 1 C5 1.66 5 2.32 5 3 C5.99 3 6.98 3 8 3 C8 3.66 8 4.32 8 5 C8.66 5 9.32 5 10 5 C10.33 6.32 10.66 7.64 11 9 C6.90784086 6.71320518 3.50049752 4.09346293 0 1 C0 0.67 0 0.34 0 0 Z " fill="#FDF0D1" transform="translate(309,162)"/>
<path d="M0 0 C1.32 0.66 2.64 1.32 4 2 C3.043419 3.77178053 2.08467012 5.54239076 1.125 7.3125 C0.59132812 8.29863281 0.05765625 9.28476563 -0.4921875 10.30078125 C-2 13 -2 13 -4 16 C-3.57057081 10.84684976 -3.32164814 8.04374557 0 4 C0 2.68 0 1.36 0 0 Z " fill="#EEA342" transform="translate(135,105)"/>
<path d="M0 0 C0.99 0.33 1.98 0.66 3 1 C0.36 3.64 -2.28 6.28 -5 9 C-5.33 7.68 -5.66 6.36 -6 5 C-5.34 5 -4.68 5 -4 5 C-4 4.34 -4 3.68 -4 3 C-3.34 3 -2.68 3 -2 3 C-2 2.34 -2 1.68 -2 1 C-1.34 0.67 -0.68 0.34 0 0 Z " fill="#EBA13D" transform="translate(57,184)"/>
<path d="M0 0 C2.31 0.33 4.62 0.66 7 1 C7.66 2.65 8.32 4.3 9 6 C9.66 6 10.32 6 11 6 C10.67 6.66 10.34 7.32 10 8 C8.33055479 6.85821872 6.6645052 5.71147095 5 4.5625 C4.071875 3.92441406 3.14375 3.28632813 2.1875 2.62890625 C1.465625 2.09136719 0.74375 1.55382812 0 1 C0 0.67 0 0.34 0 0 Z " fill="#FEF2D4" transform="translate(140,171)"/>
<path d="M0 0 C0.66 0.33 1.32 0.66 2 1 C1.5359375 2.1446875 1.5359375 2.1446875 1.0625 3.3125 C-0.33802581 8.17314841 -0.65979734 12.96858173 -1 18 C-1.33 18 -1.66 18 -2 18 C-2.33 13.38 -2.66 8.76 -3 4 C-2.01 3.67 -1.02 3.34 0 3 C0 2.01 0 1.02 0 0 Z " fill="#FFF5DB" transform="translate(111,105)"/>
<path d="M0 0 C1.98 0 3.96 0 6 0 C2.777893 3.8665284 -0.14922412 4.88059018 -5 6 C-4.67 5.34 -4.34 4.68 -4 4 C-3.34 4 -2.68 4 -2 4 C-1.34 2.68 -0.68 1.36 0 0 Z " fill="#ECA13B" transform="translate(302,283)"/>
<path d="M0 0 C4.571279 0.54855348 8.67435795 1.41744803 13 3 C13 3.33 13 3.66 13 4 C10.36 4.33 7.72 4.66 5 5 C4.67 4.01 4.34 3.02 4 2 C2.68 2 1.36 2 0 2 C0 1.34 0 0.68 0 0 Z " fill="#EEA03A" transform="translate(72,271)"/>
<path d="M0 0 C0.33 0 0.66 0 1 0 C1.75 2.75 1.75 2.75 2 6 C0.1875 8.375 0.1875 8.375 -2 10 C-2.66 10 -3.32 10 -4 10 C-2.8905928 6.51329166 -1.73662334 3.22515763 0 0 Z " fill="#FDF0D1" transform="translate(156,254)"/>
<path d="M0 0 C5.20142984 2.44773169 7.82188865 6.40211381 11 11 C9.09765625 10.65625 9.09765625 10.65625 7 10 C5.96986723 8.35178756 4.96885372 6.68496298 4 5 C3.01 4.67 2.02 4.34 1 4 C0.3125 1.9375 0.3125 1.9375 0 0 Z " fill="#EBA342" transform="translate(316,169)"/>
<path d="M0 0 C1.98 0 3.96 0 6 0 C1.95350353 2.69766432 -0.29174615 3.20257684 -5.125 3.5625 C-6.22070312 3.64628906 -7.31640625 3.73007812 -8.4453125 3.81640625 C-9.28835938 3.87699219 -10.13140625 3.93757813 -11 4 C-10.67 3.01 -10.34 2.02 -10 1 C-6.7 1.33 -3.4 1.66 0 2 C0 1.34 0 0.68 0 0 Z " fill="#EE9F34" transform="translate(291,289)"/>
<path d="M0 0 C0.33 0.66 0.66 1.32 1 2 C-0.43775696 5.21783702 -2.04417512 8.06626269 -4 11 C-4.66 11 -5.32 11 -6 11 C-4.74194623 6.49197399 -3.09592835 3.5087188 0 0 Z " fill="#FDEBC7" transform="translate(52,192)"/>
<path d="M0 0 C2.97 0.33 5.94 0.66 9 1 C8.67 2.98 8.34 4.96 8 7 C6.66382648 6.02471263 5.3311249 5.04466681 4 4.0625 C3.2575 3.51722656 2.515 2.97195312 1.75 2.41015625 C1.1725 1.94480469 0.595 1.47945313 0 1 C0 0.67 0 0.34 0 0 Z " fill="#F0A13A" transform="translate(207,96)"/>
<path d="M0 0 C1.32 0.33 2.64 0.66 4 1 C0.535 3.97 0.535 3.97 -3 7 C-2.25 2.25 -2.25 2.25 0 0 Z " fill="#EF9F34" transform="translate(316,273)"/>
<path d="M0 0 C1.32 0.66 2.64 1.32 4 2 C1.36 3.65 -1.28 5.3 -4 7 C-3.04065919 3.16263678 -2.76390737 2.40339772 0 0 Z " fill="#F49F39" transform="translate(215,194)"/>
<path d="M0 0 C4 1.33333333 8 2.66666667 12 4 C12 4.99 12 5.98 12 7 C7.39104317 5.68315519 3.85859765 3.84801255 0 1 C0 0.67 0 0.34 0 0 Z " fill="#EBA84F" transform="translate(136,194)"/>
<path d="M0 0 C1.44122613 0.59522337 2.87785868 1.20157619 4.3125 1.8125 C5.11300781 2.14894531 5.91351563 2.48539063 6.73828125 2.83203125 C8.96515745 3.98200704 10.34987767 5.13626961 12 7 C9.03 6.505 9.03 6.505 6 6 C6 5.34 6 4.68 6 4 C4.02 3.34 2.04 2.68 0 2 C0 1.34 0 0.68 0 0 Z " fill="#EBA342" transform="translate(298,157)"/>
<path d="M0 0 C-1.875 5.75 -1.875 5.75 -3 8 C-3.66 8 -4.32 8 -5 8 C-5.1875 5.125 -5.1875 5.125 -5 2 C-2 0 -2 0 0 0 Z " fill="#F19F2F" transform="translate(261,154)"/>
<path d="M0 0 C-0.33 0.66 -0.66 1.32 -1 2 C-7.75 1.25 -7.75 1.25 -10 -1 C-6.18510326 -2.46726798 -3.70988378 -1.43336419 0 0 Z " fill="#EDA43E" transform="translate(124,132)"/>
<path d="M0 0 C0.33 1.32 0.66 2.64 1 4 C0.01 4.33 -0.98 4.66 -2 5 C-3.01187895 6.65948148 -4.0126546 8.32580562 -5 10 C-5.66 10 -6.32 10 -7 10 C-5.33248852 6.05860922 -2.77289351 3.2107188 0 0 Z " fill="#EFAF55" transform="translate(126,86)"/>
<path d="M0 0 C0.33 0.66 0.66 1.32 1 2 C-2.12621626 5.39417765 -4.56541027 7.6062718 -9 9 C-8.06725891 7.87105124 -7.12859878 6.74699124 -6.1875 5.625 C-5.66542969 4.99851563 -5.14335938 4.37203125 -4.60546875 3.7265625 C-3 2 -3 2 0 0 Z " fill="#FFF1D2" transform="translate(62,183)"/>
<path d="M0 0 C-1.45804169 0.81302325 -2.91644315 1.62540131 -4.375 2.4375 C-5.18710938 2.88996094 -5.99921875 3.34242188 -6.8359375 3.80859375 C-8.20996622 4.5650536 -9.59709261 5.29854631 -11 6 C-11 4.68 -11 3.36 -11 2 C-9.73392393 1.46770674 -8.46189588 0.94955456 -7.1875 0.4375 C-6.47980469 0.14746094 -5.77210937 -0.14257812 -5.04296875 -0.44140625 C-3 -1 -3 -1 0 0 Z " fill="#EBA546" transform="translate(72,178)"/>
<path d="M0 0 C1.31611677 0.95336021 2.62778961 1.91285774 3.9375 2.875 C4.66839844 3.40867187 5.39929688 3.94234375 6.15234375 4.4921875 C8 6 8 6 9 8 C6.36 7.34 3.72 6.68 1 6 C0.67 4.02 0.34 2.04 0 0 Z " fill="#EDA341" transform="translate(231,257)"/>
<path d="M0 0 C2.02045442 0.60183749 4.02111039 1.27306096 6 2 C6.33 2.66 6.66 3.32 7 4 C4.69 3.67 2.38 3.34 0 3 C0 3.99 0 4.98 0 6 C-0.66 6 -1.32 6 -2 6 C-1.34 4.02 -0.68 2.04 0 0 Z " fill="#EAAB57" transform="translate(217,248)"/>
<path d="M0 0 C0.721875 0.144375 1.44375 0.28875 2.1875 0.4375 C3.5796875 0.7159375 3.5796875 0.7159375 5 1 C6.66666667 1.33333333 8.33333333 1.66666667 10 2 C10.33 3.32 10.66 4.64 11 6 C7.2089881 4.55049545 3.6125362 2.84827434 0 1 C0 0.67 0 0.34 0 0 Z " fill="#FCEBC4" transform="translate(209,71)"/>
<path d="M0 0 C1.43861294 0.08746284 2.87597508 0.19565348 4.3125 0.3125 C5.11300781 0.37050781 5.91351563 0.42851562 6.73828125 0.48828125 C9.36272334 1.08206694 10.30820672 1.95780294 12 4 C7.80530429 3.40075776 3.99000166 2.42500059 0 1 C0 0.67 0 0.34 0 0 Z " fill="#EBA444" transform="translate(62,290)"/>
<path d="M0 0 C0.66 0.33 1.32 0.66 2 1 C0.9375 2.9375 0.9375 2.9375 -1 5 C-4.6875 5.75 -4.6875 5.75 -8 6 C-5.33333333 4 -2.66666667 2 0 0 Z " fill="#EEAB52" transform="translate(118,266)"/>
<path d="M0 0 C0.33 0 0.66 0 1 0 C1.29296875 6.0546875 1.29296875 6.0546875 1 8 C0.01 8.66 -0.98 9.32 -2 10 C-1.125 2.25 -1.125 2.25 0 0 Z " fill="#F0A84C" transform="translate(22,202)"/>
<path d="M0 0 C1.32 0 2.64 0 4 0 C4 0.66 4 1.32 4 2 C6.97 2.495 6.97 2.495 10 3 C10.33 3.99 10.66 4.98 11 6 C7.2089881 4.55049545 3.6125362 2.84827434 0 1 C0 0.67 0 0.34 0 0 Z " fill="#EEA74D" transform="translate(109,177)"/>
<path d="M0 0 C1.8871875 0.061875 1.8871875 0.061875 3.8125 0.125 C0.12515242 2.58323172 -2.88449971 3.13742616 -7.1875 4.125 C-7.1875 3.465 -7.1875 2.805 -7.1875 2.125 C-4.09861478 0.06574319 -3.47814073 -0.1140374 0 0 Z " fill="#FFF0D1" transform="translate(159.1875,64.875)"/>
<path d="M0 0 C1.5 1 1.5 1 3 3 C3.27345479 5.71846235 3.13491285 8.25677199 3 11 C0.43383368 7.15075052 0.44902324 4.5650696 0 0 Z " fill="#FEF1D0" transform="translate(42,232)"/>
<path d="M0 0 C0 0.33 0 0.66 0 1 C-0.928125 1.268125 -1.85625 1.53625 -2.8125 1.8125 C-5.76240366 2.91148371 -7.05615186 3.62418561 -9 6 C-9 4.35 -9 2.7 -9 1 C-6.04335481 -0.4783226 -3.25770263 -0.06032783 0 0 Z " fill="#FFF5DC" transform="translate(150,226)"/>
<path d="M0 0 C3.00617269 3.00617269 2.59585316 5.82381598 3 10 C2.67 9.34 2.34 8.68 2 8 C1.34 8 0.68 8 0 8 C0 5.36 0 2.72 0 0 Z " fill="#EEA74B" transform="translate(337,200)"/>
<path d="M0 0 C2.25 -0.25 2.25 -0.25 5 0 C7.3125 2 7.3125 2 9 4 C8.01 4.495 8.01 4.495 7 5 C4.5249829 3.88568235 2.32116581 2.41849022 0 1 C0 0.67 0 0.34 0 0 Z " fill="#FEEDCE" transform="translate(124,161)"/>
<path d="M0 0 C5.445 1.485 5.445 1.485 11 3 C11 3.33 11 3.66 11 4 C3.57142857 4.28571429 3.57142857 4.28571429 0 2 C0 1.34 0 0.68 0 0 Z " fill="#EBA649" transform="translate(249,269)"/>
<path d="M0 0 C0 0.99 0 1.98 0 3 C-1.97746603 3.73080266 -3.98072489 4.39421747 -6 5 C-6.66 4.67 -7.32 4.34 -8 4 C-5.36 2.68 -2.72 1.36 0 0 Z " fill="#EFA13C" transform="translate(212,176)"/>
<path d="M0 0 C4.42857143 5.14285714 4.42857143 5.14285714 5 9 C4.01 8.67 3.02 8.34 2 8 C2 6.68 2 5.36 2 4 C1.34 4 0.68 4 0 4 C0 2.68 0 1.36 0 0 Z " fill="#FEEDC8" transform="translate(219,109)"/>
<path d="M0 0 C3.57104439 1.87949705 5.54744301 3.17053157 7 7 C6.34 7 5.68 7 5 7 C5 6.34 5 5.68 5 5 C3.68 4.67 2.36 4.34 1 4 C0.67 2.68 0.34 1.36 0 0 Z " fill="#EEA74D" transform="translate(228,85)"/>
<path d="M0 0 C2.97 0 5.94 0 9 0 C5.39338934 1.80330533 2.91606575 2.46599103 -1 3 C-0.67 2.01 -0.34 1.02 0 0 Z " fill="#EDA13F" transform="translate(161,87)"/>
</svg>
